<?xml version="1.0" encoding="UTF-8" standalone="no" ?>
<!DOCTYPE svg PUBLIC "-//W3C//DTD SVG 1.1//EN" "http://www.w3.org/Graphics/SVG/1.1/DTD/svg11.dtd">
<svg xmlns="http://www.w3.org/2000/svg" xmlns:xlink="http://www.w3.org/1999/xlink" version="1.1" width="1300" height="500" viewBox="385 550 500 500" xml:space="preserve">
<desc>Created with Fabric.js 3.6.3</desc>
	<defs>
</defs>
<g transform="matrix(1.9699870022450672 0 0 1.9699870022450672 637.5605890978978 735.0576059994189)" id="text-logo-path"  >
<path style="stroke: none; stroke-width: 0; stroke-dasharray: none; stroke-linecap: butt; stroke-dashoffset: 0; stroke-linejoin: miter; stroke-miterlimit: 4; fill: rgb(0,90,165); fill-rule: nonzero; opacity: 1;"  paint-order="stroke"  transform=" translate(-322.89, 32.71)" d="M 23.78 0 L 13.16 0 Q 12.78 0 12.78 -0.47 L 12.78 -0.47 L 12.78 -54.05 L 0.56 -54.05 Q 0.09 -54.05 0.09 -54.52 L 0.09 -54.52 L 0.19 -65.05 Q 0.19 -65.42 0.56 -65.42 L 0.56 -65.42 L 36.28 -65.42 Q 36.75 -65.42 36.75 -65.05 L 36.75 -65.05 L 36.75 -54.52 Q 36.75 -54.05 36.38 -54.05 L 36.38 -54.05 L 24.06 -54.05 L 24.16 -0.47 Q 24.16 0 23.78 0 L 23.78 0 Z M 52.36 0 L 41.74 0 Q 41.36 0 41.36 -0.47 L 41.36 -0.47 L 41.55 -65.05 Q 41.55 -65.42 41.92 -65.42 L 41.92 -65.42 L 60.91 -65.42 Q 65.99 -65.42 70.27 -62.93 Q 74.54 -60.44 77.08 -56.26 Q 79.62 -52.08 79.62 -46.81 L 79.62 -46.81 Q 79.62 -43.33 78.58 -40.56 Q 77.55 -37.79 76.14 -35.86 Q 74.73 -33.93 73.6 -32.99 L 73.6 -32.99 Q 78.68 -27.35 78.68 -19.74 L 78.68 -19.74 L 78.77 -0.47 Q 78.77 0 78.3 0 L 78.3 0 L 67.68 0 Q 67.3 0 67.3 -0.28 L 67.3 -0.28 L 67.3 -19.74 Q 67.3 -23.12 64.91 -25.61 Q 62.51 -28.11 59.03 -28.11 L 59.03 -28.11 L 52.83 -28.11 L 52.73 -0.47 Q 52.73 0 52.36 0 L 52.36 0 Z M 52.83 -54.14 L 52.83 -39.39 L 60.91 -39.39 Q 63.83 -39.39 66.08 -41.55 Q 68.34 -43.71 68.34 -46.81 L 68.34 -46.81 Q 68.34 -49.82 66.13 -51.98 Q 63.92 -54.14 60.91 -54.14 L 60.91 -54.14 L 52.83 -54.14 Z M 97.76 0 L 87.14 0 Q 86.67 0 86.67 -0.47 L 86.67 -0.47 L 86.76 -65.05 Q 86.76 -65.42 87.14 -65.42 L 87.14 -65.42 L 97.67 -65.42 Q 98.04 -65.42 98.04 -65.05 L 98.04 -65.05 L 98.14 -0.47 Q 98.14 0 97.76 0 L 97.76 0 Z M 137.15 0 L 106.78 0 Q 106.41 0 106.41 -0.47 L 106.41 -0.47 L 106.5 -65.05 Q 106.5 -65.42 106.88 -65.42 L 106.88 -65.42 L 137.05 -65.42 Q 137.43 -65.42 137.43 -64.95 L 137.43 -64.95 L 137.43 -54.43 Q 137.43 -54.05 137.05 -54.05 L 137.05 -54.05 L 117.78 -54.05 L 117.78 -39.39 L 137.05 -39.39 Q 137.43 -39.39 137.43 -39.01 L 137.43 -39.01 L 137.52 -28.39 Q 137.52 -28.01 137.15 -28.01 L 137.15 -28.01 L 117.78 -28.01 L 117.78 -11.56 L 137.15 -11.56 Q 137.52 -11.56 137.52 -11.09 L 137.52 -11.09 L 137.52 -0.38 Q 137.52 0 137.15 0 L 137.15 0 Z M 165.91 0 L 155.29 0 Q 154.91 0 154.91 -0.47 L 154.91 -0.47 L 154.91 -54.05 L 142.69 -54.05 Q 142.22 -54.05 142.22 -54.52 L 142.22 -54.52 L 142.32 -65.05 Q 142.32 -65.42 142.69 -65.42 L 142.69 -65.42 L 178.41 -65.42 Q 178.88 -65.42 178.88 -65.05 L 178.88 -65.05 L 178.88 -54.52 Q 178.88 -54.05 178.51 -54.05 L 178.51 -54.05 L 166.19 -54.05 L 166.29 -0.47 Q 166.29 0 165.91 0 L 165.91 0 Z M 194.58 0 L 183.96 0 Q 183.49 0 183.49 -0.47 L 183.49 -0.47 L 183.58 -65.05 Q 183.58 -65.42 183.96 -65.42 L 183.96 -65.42 L 194.49 -65.42 Q 194.86 -65.42 194.86 -65.05 L 194.86 -65.05 L 194.96 -0.47 Q 194.96 0 194.58 0 L 194.58 0 Z M 247.88 0 L 217.52 0 Q 217.14 0 217.14 -0.47 L 217.14 -0.47 L 217.23 -65.05 Q 217.23 -65.42 217.61 -65.42 L 217.61 -65.42 L 247.78 -65.42 Q 248.16 -65.42 248.16 -64.95 L 248.16 -64.95 L 248.16 -54.43 Q 248.16 -54.05 247.78 -54.05 L 247.78 -54.05 L 228.51 -54.05 L 228.51 -39.39 L 247.78 -39.39 Q 248.16 -39.39 248.16 -39.01 L 248.16 -39.01 L 248.25 -28.39 Q 248.25 -28.01 247.88 -28.01 L 247.88 -28.01 L 228.51 -28.01 L 228.51 -11.56 L 247.88 -11.56 Q 248.25 -11.56 248.25 -11.09 L 248.25 -11.09 L 248.25 -0.38 Q 248.25 0 247.88 0 L 247.88 0 Z M 266.87 0 L 257.47 0 Q 256.71 0 256.71 -0.66 L 256.71 -0.66 L 256.62 -64.67 Q 256.62 -65.42 257.37 -65.42 L 257.37 -65.42 L 265.83 -65.42 L 281.72 -28.39 L 281.25 -64.67 Q 281.25 -65.42 282.09 -65.42 L 282.09 -65.42 L 291.4 -65.42 Q 291.96 -65.42 291.96 -64.67 L 291.96 -64.67 L 292.06 -0.56 Q 292.06 0 291.59 0 L 291.59 0 L 283.32 0 L 267.05 -34.59 L 267.71 -0.75 Q 267.71 0 266.87 0 L 266.87 0 Z M 320.26 0 L 309.64 0 Q 309.26 0 309.26 -0.47 L 309.26 -0.47 L 309.26 -54.05 L 297.04 -54.05 Q 296.57 -54.05 296.57 -54.52 L 296.57 -54.52 L 296.66 -65.05 Q 296.66 -65.42 297.04 -65.42 L 297.04 -65.42 L 332.76 -65.42 Q 333.23 -65.42 333.23 -65.05 L 333.23 -65.05 L 333.23 -54.52 Q 333.23 -54.05 332.85 -54.05 L 332.85 -54.05 L 320.54 -54.05 L 320.63 -0.47 Q 320.63 0 320.26 0 L 320.26 0 Z M 368.57 0 L 338.21 0 Q 337.84 0 337.84 -0.47 L 337.84 -0.47 L 337.93 -65.05 Q 337.93 -65.42 338.31 -65.42 L 338.31 -65.42 L 368.48 -65.42 Q 368.86 -65.42 368.86 -64.95 L 368.86 -64.95 L 368.86 -54.43 Q 368.86 -54.05 368.48 -54.05 L 368.48 -54.05 L 349.21 -54.05 L 349.21 -39.39 L 368.48 -39.39 Q 368.86 -39.39 368.86 -39.01 L 368.86 -39.01 L 368.95 -28.39 Q 368.95 -28.01 368.57 -28.01 L 368.57 -28.01 L 349.21 -28.01 L 349.21 -11.56 L 368.57 -11.56 Q 368.95 -11.56 368.95 -11.09 L 368.95 -11.09 L 368.95 -0.38 Q 368.95 0 368.57 0 L 368.57 0 Z M 388.31 0 L 377.69 0 Q 377.32 0 377.32 -0.47 L 377.32 -0.47 L 377.5 -65.05 Q 377.5 -65.42 377.88 -65.42 L 377.88 -65.42 L 396.87 -65.42 Q 401.94 -65.42 406.22 -62.93 Q 410.5 -60.44 413.04 -56.26 Q 415.57 -52.08 415.57 -46.81 L 415.57 -46.81 Q 415.57 -43.33 414.54 -40.56 Q 413.51 -37.79 412.1 -35.86 Q 410.69 -33.93 409.56 -32.99 L 409.56 -32.99 Q 414.63 -27.35 414.63 -19.74 L 414.63 -19.74 L 414.73 -0.47 Q 414.73 0 414.26 0 L 414.26 0 L 403.64 0 Q 403.26 0 403.26 -0.28 L 403.26 -0.28 L 403.26 -19.74 Q 403.26 -23.12 400.86 -25.61 Q 398.47 -28.11 394.99 -28.11 L 394.99 -28.11 L 388.78 -28.11 L 388.69 -0.47 Q 388.69 0 388.31 0 L 388.31 0 Z M 388.78 -54.14 L 388.78 -39.39 L 396.87 -39.39 Q 399.78 -39.39 402.04 -41.55 Q 404.29 -43.71 404.29 -46.81 L 404.29 -46.81 Q 404.29 -49.82 402.09 -51.98 Q 399.88 -54.14 396.87 -54.14 L 396.87 -54.14 L 388.78 -54.14 Z M 433.62 0 L 423.09 0 Q 422.62 0 422.62 -0.47 L 422.62 -0.47 L 422.81 -65.05 Q 422.81 -65.42 423.19 -65.42 L 423.19 -65.42 L 441.24 -65.42 Q 449.88 -65.42 454.91 -60.16 Q 459.94 -54.9 459.94 -45.87 L 459.94 -45.87 Q 459.94 -39.2 457.31 -34.31 Q 454.68 -29.42 450.45 -26.79 Q 446.22 -24.16 441.24 -24.16 L 441.24 -24.16 L 434.09 -24.16 L 434.09 -0.47 Q 434.09 0 433.62 0 L 433.62 0 Z M 434.09 -54.14 L 434.09 -35.53 L 441.24 -35.53 Q 444.24 -35.53 446.45 -38.4 Q 448.66 -41.27 448.66 -45.87 L 448.66 -45.87 Q 448.66 -49.54 446.69 -51.89 Q 444.71 -54.24 441.24 -54.24 L 441.24 -54.24 L 434.09 -54.14 Z M 477.33 0 L 466.71 0 Q 466.33 0 466.33 -0.47 L 466.33 -0.47 L 466.52 -65.05 Q 466.52 -65.42 466.9 -65.42 L 466.9 -65.42 L 485.89 -65.42 Q 490.96 -65.42 495.24 -62.93 Q 499.52 -60.44 502.05 -56.26 Q 504.59 -52.08 504.59 -46.81 L 504.59 -46.81 Q 504.59 -43.33 503.56 -40.56 Q 502.52 -37.79 501.11 -35.86 Q 499.7 -33.93 498.58 -32.99 L 498.58 -32.99 Q 503.65 -27.35 503.65 -19.74 L 503.65 -19.74 L 503.75 -0.47 Q 503.75 0 503.28 0 L 503.28 0 L 492.65 0 Q 492.28 0 492.28 -0.28 L 492.28 -0.28 L 492.28 -19.74 Q 492.28 -23.12 489.88 -25.61 Q 487.48 -28.11 484.01 -28.11 L 484.01 -28.11 L 477.8 -28.11 L 477.71 -0.47 Q 477.71 0 477.33 0 L 477.33 0 Z M 477.8 -54.14 L 477.8 -39.39 L 485.89 -39.39 Q 488.8 -39.39 491.06 -41.55 Q 493.31 -43.71 493.31 -46.81 L 493.31 -46.81 Q 493.31 -49.82 491.1 -51.98 Q 488.89 -54.14 485.89 -54.14 L 485.89 -54.14 L 477.8 -54.14 Z M 522.73 0 L 512.11 0 Q 511.64 0 511.64 -0.47 L 511.64 -0.47 L 511.74 -65.05 Q 511.74 -65.42 512.11 -65.42 L 512.11 -65.42 L 522.64 -65.42 Q 523.02 -65.42 523.02 -65.05 L 523.02 -65.05 L 523.11 -0.47 Q 523.11 0 522.73 0 L 522.73 0 Z M 547.36 0.94 L 547.36 0.94 Q 542.29 0.94 538.1 -1.65 Q 533.92 -4.23 531.43 -8.51 Q 528.94 -12.78 528.94 -17.95 L 528.94 -17.95 L 528.94 -22.28 Q 528.94 -22.75 529.41 -22.75 L 529.41 -22.75 L 539.94 -22.75 Q 540.31 -22.75 540.31 -22.28 L 540.31 -22.28 L 540.31 -17.95 Q 540.31 -14.85 542.38 -12.64 Q 544.45 -10.43 547.36 -10.43 L 547.36 -10.43 Q 550.28 -10.43 552.34 -12.69 Q 554.41 -14.95 554.41 -17.95 L 554.41 -17.95 Q 554.41 -21.43 549.9 -23.97 L 549.9 -23.97 Q 548.4 -24.82 545.2 -26.6 Q 542 -28.39 539.18 -29.99 L 539.18 -29.99 Q 534.01 -32.99 531.52 -37.55 Q 529.03 -42.11 529.03 -47.85 L 529.03 -47.85 Q 529.03 -53.11 531.57 -57.29 Q 534.11 -61.48 538.29 -63.92 Q 542.47 -66.36 547.36 -66.36 L 547.36 -66.36 Q 552.34 -66.36 556.53 -63.87 Q 560.71 -61.38 563.2 -57.2 Q 565.69 -53.02 565.69 -47.85 L 565.69 -47.85 L 565.69 -40.14 Q 565.69 -39.76 565.32 -39.76 L 565.32 -39.76 L 554.79 -39.76 Q 554.41 -39.76 554.41 -40.14 L 554.41 -40.14 L 554.32 -47.85 Q 554.32 -51.14 552.25 -53.2 Q 550.18 -55.27 547.36 -55.27 L 547.36 -55.27 Q 544.45 -55.27 542.38 -53.06 Q 540.31 -50.85 540.31 -47.85 L 540.31 -47.85 Q 540.31 -44.74 541.63 -42.68 Q 542.94 -40.61 546.42 -38.73 L 546.42 -38.73 Q 546.89 -38.45 548.25 -37.74 Q 549.62 -37.04 551.22 -36.14 Q 552.81 -35.25 554.08 -34.59 Q 555.35 -33.93 555.63 -33.75 L 555.63 -33.75 Q 560.33 -31.11 563.06 -27.31 Q 565.79 -23.5 565.79 -17.95 L 565.79 -17.95 Q 565.79 -12.6 563.29 -8.32 Q 560.8 -4.04 556.62 -1.55 Q 552.44 0.94 547.36 0.94 Z M 603.1 0 L 572.74 0 Q 572.37 0 572.37 -0.47 L 572.37 -0.47 L 572.46 -65.05 Q 572.46 -65.42 572.84 -65.42 L 572.84 -65.42 L 603.01 -65.42 Q 603.39 -65.42 603.39 -64.95 L 603.39 -64.95 L 603.39 -54.43 Q 603.39 -54.05 603.01 -54.05 L 603.01 -54.05 L 583.74 -54.05 L 583.74 -39.39 L 603.01 -39.39 Q 603.39 -39.39 603.39 -39.01 L 603.39 -39.01 L 603.48 -28.39 Q 603.48 -28.01 603.1 -28.01 L 603.1 -28.01 L 583.74 -28.01 L 583.74 -11.56 L 603.1 -11.56 Q 603.48 -11.56 603.48 -11.09 L 603.48 -11.09 L 603.48 -0.38 Q 603.48 0 603.1 0 L 603.1 0 Z M 627.26 0.94 L 627.26 0.94 Q 622.19 0.94 618 -1.65 Q 613.82 -4.23 611.33 -8.51 Q 608.84 -12.78 608.84 -17.95 L 608.84 -17.95 L 608.84 -22.28 Q 608.84 -22.75 609.31 -22.75 L 609.31 -22.75 L 619.84 -22.75 Q 620.21 -22.75 620.21 -22.28 L 620.21 -22.28 L 620.21 -17.95 Q 620.21 -14.85 622.28 -12.64 Q 624.35 -10.43 627.26 -10.43 L 627.26 -10.43 Q 630.18 -10.43 632.24 -12.69 Q 634.31 -14.95 634.31 -17.95 L 634.31 -17.95 Q 634.31 -21.43 629.8 -23.97 L 629.8 -23.97 Q 628.3 -24.82 625.1 -26.6 Q 621.9 -28.39 619.08 -29.99 L 619.08 -29.99 Q 613.91 -32.99 611.42 -37.55 Q 608.93 -42.11 608.93 -47.85 L 608.93 -47.85 Q 608.93 -53.11 611.47 -57.29 Q 614.01 -61.48 618.19 -63.92 Q 622.37 -66.36 627.26 -66.36 L 627.26 -66.36 Q 632.24 -66.36 636.43 -63.87 Q 640.61 -61.38 643.1 -57.2 Q 645.59 -53.02 645.59 -47.85 L 645.59 -47.85 L 645.59 -40.14 Q 645.59 -39.76 645.22 -39.76 L 645.22 -39.76 L 634.69 -39.76 Q 634.31 -39.76 634.31 -40.14 L 634.31 -40.14 L 634.22 -47.85 Q 634.22 -51.14 632.15 -53.2 Q 630.08 -55.27 627.26 -55.27 L 627.26 -55.27 Q 624.35 -55.27 622.28 -53.06 Q 620.21 -50.85 620.21 -47.85 L 620.21 -47.85 Q 620.21 -44.74 621.53 -42.68 Q 622.84 -40.61 626.32 -38.73 L 626.32 -38.73 Q 626.79 -38.45 628.16 -37.74 Q 629.52 -37.04 631.12 -36.14 Q 632.71 -35.25 633.98 -34.59 Q 635.25 -33.93 635.53 -33.75 L 635.53 -33.75 Q 640.23 -31.11 642.96 -27.31 Q 645.69 -23.5 645.69 -17.95 L 645.69 -17.95 Q 645.69 -12.6 643.2 -8.32 Q 640.7 -4.04 636.52 -1.55 Q 632.34 0.94 627.26 0.94 Z" stroke-linecap="round" />
</g>
	<g transform="matrix(1.9699870022450672 0 0 1.9699870022450672 640.8920833670695 857.9825549113634)" id="tagline-3760b411-1d03-4129-9d72-6036b6ad09c4-logo-path"  >
<path style="stroke: none; stroke-width: 0; stroke-dasharray: none; stroke-linecap: butt; stroke-dashoffset: 0; stroke-linejoin: miter; stroke-miterlimit: 4; fill: rgb(24,105,172); fill-rule: nonzero; opacity: 1;"  paint-order="stroke"  transform=" translate(-187.60999999999999, 20.795)" d="M 16.72 0 L 6.41 0 L 6.41 -41.59 L 16.06 -41.59 Q 21.06 -41.59 23.66 -39.23 Q 26.25 -36.88 26.25 -32.63 L 26.25 -32.63 L 26.25 -28.81 Q 26.25 -23.38 21.69 -21.81 L 21.69 -21.81 Q 26.88 -20.41 26.88 -14.72 L 26.88 -14.72 L 26.88 -8.97 Q 26.88 -4.69 24.31 -2.34 Q 21.75 0 16.72 0 L 16.72 0 Z M 10.88 -20.16 L 10.88 -3.84 L 16.72 -3.84 Q 19.41 -3.84 20.91 -5.34 Q 22.41 -6.84 22.41 -8.97 L 22.41 -8.97 L 22.41 -14.72 Q 22.41 -16.78 20.86 -18.47 Q 19.31 -20.16 16.72 -20.16 L 16.72 -20.16 L 10.88 -20.16 Z M 10.88 -37.75 L 10.88 -23.38 L 16.06 -23.38 Q 18.75 -23.38 20.25 -25.03 Q 21.75 -26.69 21.75 -28.81 L 21.75 -28.81 L 21.75 -32.63 Q 21.75 -34.69 20.25 -36.22 Q 18.75 -37.75 16.06 -37.75 L 16.06 -37.75 L 10.88 -37.75 Z M 43.19 0 L 38.72 0 L 38.72 -41.59 L 40.63 -41.59 L 42.5 -36.88 Q 44.56 -42.56 49.03 -42.56 L 49.03 -42.56 Q 56.66 -42.56 56.63 -34.25 L 56.63 -34.25 L 56.63 -30.09 L 52.34 -30.09 L 52.34 -34.5 Q 52.34 -38.72 48.81 -38.72 L 48.81 -38.72 Q 46.69 -38.72 44.94 -36.28 Q 43.19 -33.84 43.19 -29.25 L 43.19 -29.25 L 43.19 0 Z M 68.78 0 L 64.31 0 L 64.31 -41.59 L 68.78 -41.59 L 68.78 0 Z M 91.88 0 L 81.56 0 L 81.56 -41.59 L 91.88 -41.59 Q 96.88 -41.59 99.45 -39.23 Q 102.03 -36.88 102.03 -32.63 L 102.03 -32.63 L 102.03 -8.97 Q 102.03 -4.69 99.48 -2.34 Q 96.94 0 91.88 0 L 91.88 0 Z M 86.03 -37.75 L 86.03 -3.84 L 91.88 -3.84 Q 97.56 -3.84 97.56 -8.97 L 97.56 -8.97 L 97.56 -32.63 Q 97.56 -35.06 96.09 -36.41 Q 94.63 -37.75 91.88 -37.75 L 91.88 -37.75 L 86.03 -37.75 Z M 112.91 -8 L 112.91 -8 L 112.91 -33.59 Q 112.91 -37.88 115.53 -40.22 Q 118.16 -42.56 123.41 -42.56 Q 128.66 -42.56 131.34 -40.22 Q 134.03 -37.88 134.03 -33.59 L 134.03 -33.59 L 134.03 -30.09 L 129.56 -30.09 L 129.56 -33.59 Q 129.56 -38.72 123.47 -38.72 Q 117.38 -38.72 117.38 -33.59 L 117.38 -33.59 L 117.38 -8 Q 117.38 -2.88 123.47 -2.88 Q 129.56 -2.88 129.56 -8 L 129.56 -8 L 129.56 -17.28 L 122.38 -17.28 L 122.38 -21.13 L 134.03 -21.13 L 134.03 -8 Q 134.03 -3.72 131.41 -1.38 Q 128.78 0.97 123.53 0.97 Q 118.28 0.97 115.59 -1.38 Q 112.91 -3.72 112.91 -8 Z M 150.34 0 L 145.88 0 L 145.88 -41.59 L 150.34 -41.59 L 150.34 0 Z M 167.59 0 L 163.13 0 L 163.13 -41.59 L 165.03 -41.59 L 166.63 -37.44 Q 169.69 -42.56 175.16 -42.56 L 175.16 -42.56 Q 184.56 -42.56 184.56 -33.59 L 184.56 -33.59 L 184.56 0 L 180.09 0 L 180.09 -33.59 Q 180.09 -36.03 179.03 -37.38 Q 177.97 -38.72 175.16 -38.72 Q 172.34 -38.72 169.97 -36.55 Q 167.59 -34.38 167.59 -32.31 L 167.59 -32.31 L 167.59 0 Z M 195.75 -8 L 195.75 -8 L 195.75 -33.59 Q 195.75 -37.88 198.38 -40.22 Q 201 -42.56 206.25 -42.56 Q 211.5 -42.56 214.19 -40.22 Q 216.88 -37.88 216.88 -33.59 L 216.88 -33.59 L 216.88 -30.09 L 212.41 -30.09 L 212.41 -33.59 Q 212.41 -38.72 206.31 -38.72 Q 200.22 -38.72 200.22 -33.59 L 200.22 -33.59 L 200.22 -8 Q 200.22 -2.88 206.31 -2.88 Q 212.41 -2.88 212.41 -8 L 212.41 -8 L 212.41 -17.28 L 205.22 -17.28 L 205.22 -21.13 L 216.88 -21.13 L 216.88 -8 Q 216.88 -3.72 214.25 -1.38 Q 211.63 0.97 206.38 0.97 Q 201.13 0.97 198.44 -1.38 Q 195.75 -3.72 195.75 -8 Z M 252.41 0 L 241.5 0 L 241.5 -3.84 L 244.72 -3.84 L 244.72 -37.75 L 241.5 -37.75 L 241.5 -41.59 L 252.41 -41.59 L 252.41 -37.75 L 249.19 -37.75 L 249.19 -3.84 L 252.41 -3.84 L 252.41 0 Z M 267.72 0 L 263.25 0 L 263.25 -41.59 L 265.16 -41.59 L 266.75 -37.44 Q 269.81 -42.56 275.28 -42.56 L 275.28 -42.56 Q 284.69 -42.56 284.69 -33.59 L 284.69 -33.59 L 284.69 0 L 280.22 0 L 280.22 -33.59 Q 280.22 -36.03 279.16 -37.38 Q 278.09 -38.72 275.28 -38.72 Q 272.47 -38.72 270.09 -36.55 Q 267.72 -34.38 267.72 -32.31 L 267.72 -32.31 L 267.72 0 Z M 301.31 0 L 296.84 0 L 296.84 -41.59 L 314.44 -41.59 L 314.44 -37.75 L 301.31 -37.75 L 301.31 -23.03 L 311.88 -23.03 L 311.88 -19.19 L 301.31 -19.19 L 301.31 0 Z M 327.84 0 L 323.38 0 L 323.38 -41.59 L 325.28 -41.59 L 327.16 -36.88 Q 329.22 -42.56 333.69 -42.56 L 333.69 -42.56 Q 341.31 -42.56 341.28 -34.25 L 341.28 -34.25 L 341.28 -30.09 L 337 -30.09 L 337 -34.5 Q 337 -38.72 333.47 -38.72 L 333.47 -38.72 Q 331.34 -38.72 329.59 -36.28 Q 327.84 -33.84 327.84 -29.25 L 327.84 -29.25 L 327.84 0 Z M 347.69 -8 L 347.69 -8 L 347.69 -14.41 Q 347.69 -23.38 356.91 -23.38 L 356.91 -23.38 L 364.31 -23.38 L 364.31 -33.84 Q 364.31 -36.16 362.84 -37.44 Q 361.38 -38.72 358.5 -38.72 L 358.5 -38.72 Q 352.81 -38.72 352.81 -33.84 L 352.81 -33.84 L 352.81 -30.09 L 348.31 -30.09 L 348.31 -33.59 Q 348.31 -37.88 350.84 -40.22 Q 353.38 -42.56 358.5 -42.56 Q 363.63 -42.56 366.22 -40.22 Q 368.81 -37.88 368.81 -33.59 L 368.81 -33.59 L 368.81 0 L 366.88 0 L 365.22 -4.09 Q 363.88 -1.78 361.7 -0.41 Q 359.53 0.97 356.91 0.97 L 356.91 0.97 Q 347.69 0.97 347.69 -8 Z M 352.16 -14.41 L 352.16 -8 Q 352.16 -5.56 353.19 -4.22 Q 354.22 -2.88 356.91 -2.88 Q 359.59 -2.88 361.89 -4.95 Q 364.19 -7.03 364.31 -9.09 L 364.31 -9.09 L 364.31 -19.53 L 356.91 -19.53 Q 354.22 -19.53 353.19 -18.19 Q 352.16 -16.84 352.16 -14.41 L 352.16 -14.41 Z" stroke-linecap="round" />
</g>
</svg>