<?xml version="1.0" encoding="UTF-8" standalone="no" ?>
<!DOCTYPE svg PUBLIC "-//W3C//DTD SVG 1.1//EN" "http://www.w3.org/Graphics/SVG/1.1/DTD/svg11.dtd">
<svg xmlns="http://www.w3.org/2000/svg" xmlns:xlink="http://www.w3.org/1999/xlink" version="1.1" width="500" height="600" viewBox="390 20 500 600" xml:space="preserve">
<desc>Created with Fabric.js 3.6.3</desc>
<defs>
</defs>
<g transform="matrix(1.966205837173579 0 0 1.966205837173579 640.2456813819579 512.1966205837175)" id="background-logo"  >
<rect style="stroke: none; stroke-width: 1; stroke-dasharray: none; stroke-linecap: butt; stroke-dashoffset: 0; stroke-linejoin: miter; stroke-miterlimit: 4; fill: rgb(255,255,255); fill-rule: nonzero; opacity: 1;"  paint-order="stroke"  x="-325" y="-260" rx="0" ry="0" width="650" height="520" />
</g>
<g transform="matrix(1.9699870022450672 0 0 1.9699870022450672 640.2456813819579 346.65218391462594)" id="logo-logo"  >
<g style=""  paint-order="stroke"   >
		<g transform="matrix(2.4091682013749294 0 0 -2.4091682013749294 11.564708889306075 74.84712579731735)"  >
<path style="stroke: none; stroke-width: 1; stroke-dasharray: none; stroke-linecap: butt; stroke-dashoffset: 0; stroke-linejoin: miter; stroke-miterlimit: 4; fill: rgb(0,90,165); fill-rule: nonzero; opacity: 1;"  paint-order="stroke"  transform=" translate(-167.50749999999996, -121.43549999999999)" d="m 165.384 119.312 h 4.247 v 4.247 h -4.247 z" stroke-linecap="round" />
</g>
		<g transform="matrix(2.4091682013749294 0 0 -2.4091682013749294 11.564708889306246 61.58706401694977)"  >
<path style="stroke: none; stroke-width: 1; stroke-dasharray: none; stroke-linecap: butt; stroke-dashoffset: 0; stroke-linejoin: miter; stroke-miterlimit: 4; fill: rgb(0,90,165); fill-rule: nonzero; opacity: 1;"  paint-order="stroke"  transform=" translate(-167.50750000000002, -126.93949999999998)" d="m 169.631 129.063 h -4.247 v -4.247 h 4.247 z" stroke-linecap="round" />
</g>
		<g transform="matrix(2.4091682013749294 0 0 -2.4091682013749294 24.82477066967374 61.58706401694977)"  >
<path style="stroke: none; stroke-width: 1; stroke-dasharray: none; stroke-linecap: butt; stroke-dashoffset: 0; stroke-linejoin: miter; stroke-miterlimit: 4; fill: rgb(0,90,165); fill-rule: nonzero; opacity: 1;"  paint-order="stroke"  transform=" translate(-173.01149999999998, -126.93949999999998)" d="m 175.135 129.063 h -4.247 v -4.247 h 4.247 z" stroke-linecap="round" />
</g>
		<g transform="matrix(2.4091682013749294 0 0 -2.4091682013749294 24.82477066967374 74.84712579731735)"  >
<path style="stroke: none; stroke-width: 1; stroke-dasharray: none; stroke-linecap: butt; stroke-dashoffset: 0; stroke-linejoin: miter; stroke-miterlimit: 4; fill: rgb(0,90,165); fill-rule: nonzero; opacity: 1;"  paint-order="stroke"  transform=" translate(-173.01149999999998, -121.43549999999999)" d="m 170.888 119.312 h 4.247 v 4.247 h -4.247 z" stroke-linecap="round" />
</g>
		<g transform="matrix(2.4091682013749294 0 0 -2.4091682013749294 74.11562931934446 4.071064210964948)"  >
<path style="stroke: none; stroke-width: 1; stroke-dasharray: none; stroke-linecap: butt; stroke-dashoffset: 0; stroke-linejoin: miter; stroke-miterlimit: 4; fill: rgb(0,90,165); fill-rule: nonzero; opacity: 1;"  paint-order="stroke"  transform=" translate(-1.3735, -14.972499999999998)" d="M 0 0 L 2.747 -1.586 V 29.945 L 0 31.531 Z" stroke-linecap="round" />
</g>
		<g transform="matrix(2.4091682013749294 0 0 -2.4091682013749294 8.59637274839207 -54.4483541508925)"  >
<path style="stroke: none; stroke-width: 1; stroke-dasharray: none; stroke-linecap: butt; stroke-dashoffset: 0; stroke-linejoin: miter; stroke-miterlimit: 4; fill: rgb(0,90,165); fill-rule: nonzero; opacity: 1;"  paint-order="stroke"  transform=" translate(-1.374, 29.7485)" d="m 0 0 v -36.384 v -23.113 l 2.748 1.587 v 21.868 v 34.456 z" stroke-linecap="round" />
</g>
		<g transform="matrix(2.4091682013749294 0 0 -2.4091682013749294 21.831379179465443 -52.35020956431504)"  >
<path style="stroke: none; stroke-width: 1; stroke-dasharray: none; stroke-linecap: butt; stroke-dashoffset: 0; stroke-linejoin: miter; stroke-miterlimit: 4; fill: rgb(0,90,165); fill-rule: nonzero; opacity: 1;"  paint-order="stroke"  transform=" translate(-1.3735, 27.447)" d="m 0 0 v -32.464 v -20.845 l 2.747 -1.585 v 22.908 v 30.4 z" stroke-linecap="round" />
</g>
		<g transform="matrix(2.4091682013749294 0 0 -2.4091682013749294 35.0663856105387 -44.709773530474564)"  >
<path style="stroke: none; stroke-width: 1; stroke-dasharray: none; stroke-linecap: butt; stroke-dashoffset: 0; stroke-linejoin: miter; stroke-miterlimit: 4; fill: rgb(0,90,165); fill-rule: nonzero; opacity: 1;"  paint-order="stroke"  transform=" translate(-1.373, 27.447)" d="m 0 0 v -28.28 v -25.029 l 1.337 -0.772 l 1.409 -0.813 v 27.207 v 26.101 z" stroke-linecap="round" />
</g>
		<g transform="matrix(2.4091682013749294 0 0 -2.4091682013749294 48.30042837433143 -37.068132912533486)"  >
<path style="stroke: none; stroke-width: 1; stroke-dasharray: none; stroke-linecap: butt; stroke-dashoffset: 0; stroke-linejoin: miter; stroke-miterlimit: 4; fill: rgb(0,90,165); fill-rule: nonzero; opacity: 1;"  paint-order="stroke"  transform=" translate(-1.373, 27.447)" d="m 0 0 v -23.865 v -29.444 l 2.746 -1.585 v 31.732 v 21.576 z" stroke-linecap="round" />
</g>
		<g transform="matrix(2.4091682013749294 0 0 -2.4091682013749294 61.5368803063256 -29.42528771049166)"  >
<path style="stroke: none; stroke-width: 1; stroke-dasharray: none; stroke-linecap: butt; stroke-dashoffset: 0; stroke-linejoin: miter; stroke-miterlimit: 4; fill: rgb(0,90,165); fill-rule: nonzero; opacity: 1;"  paint-order="stroke"  transform=" translate(-1.3729999999999998, 27.448)" d="M 0 0 V -19.234 V -53.31 l 2.183 -1.26 l 0.563 -0.326 v 8.591 v 27.877 v 16.842 z" stroke-linecap="round" />
</g>
		<g transform="matrix(2.4091682013749294 0 0 -2.4091682013749294 -34.41787998623647 -35.34605948219067)"  >
<path style="stroke: none; stroke-width: 1; stroke-dasharray: none; stroke-linecap: butt; stroke-dashoffset: 0; stroke-linejoin: miter; stroke-miterlimit: 4; fill: rgb(0,90,165); fill-rule: nonzero; opacity: 1;"  paint-order="stroke"  transform=" translate(-13.7345, 23.4045)" d="m 0 0 v -18.316 v -26.403 v -17.949 l 4.706 2.718 l 5.455 3.149 v 11.577 h 8.242 v -6.819 l 7.249 4.187 l 1.817 1.047 v 24.426 v 38.242 z" stroke-linecap="round" />
</g>
		<g transform="matrix(2.4091682013749294 0 0 -2.4091682013749294 0 52.66935567686872)"  >
<path style="stroke: none; stroke-width: 1; stroke-dasharray: none; stroke-linecap: butt; stroke-dashoffset: 0; stroke-linejoin: miter; stroke-miterlimit: 4; fill: rgb(0,90,165); fill-rule: nonzero; opacity: 1;"  paint-order="stroke"  transform=" translate(-162.70720881123782, -130.64107149467256)" d="m 210.524 145.497 c -7.155 -18.828 -33.325 -35.463 -58.456 -37.146 v 0 c -25.126 -1.686 -39.696 12.218 -32.541 31.045 v 0 c 2.456 6.464 7.153 12.667 13.276 18.097 v 0 c -9.505 -6.95 -16.878 -15.5 -20.301 -24.504 v 0 l -0.004 -0.01 c -7.892 -20.776 8.179 -36.113 35.899 -34.259 v 0 l 0.022 0.001 c 27.724 1.863 56.603 20.217 64.498 40.995 v 0 c 3.424 9.007 2.334 16.99 -2.248 22.998 v 0 c 2.209 -4.871 2.311 -10.754 -0.145 -17.217" stroke-linecap="round" />
</g>
		<g transform="matrix(2.4091682013749294 0 0 -2.4091682013749294 -4.83112622197109 47.81336757604899)"  >
<path style="stroke: none; stroke-width: 1; stroke-dasharray: none; stroke-linecap: butt; stroke-dashoffset: 0; stroke-linejoin: miter; stroke-miterlimit: 4; fill: rgb(0,90,165); fill-rule: nonzero; opacity: 1;"  paint-order="stroke"  transform=" translate(34.175, -1.0650000000000013)" d="m 0 0 l -2.747 1.586 l -0.556 0.319 l -1.919 1.11 l -0.563 0.325 l -2.183 1.26 l -2.748 1.586 l -2.746 1.585 l -2.747 1.586 l -1.409 0.813 l -1.337 0.773 l -1.591 0.918 l -1.156 0.668 l -2.747 1.586 l -0.136 0.079 l -2.61 -1.508 l -2.748 -1.586 l -2.436 -1.406 l -0.31 -0.18 l -1.817 -1.049 l -7.275 -4.199 l -3.023 -1.745 l -10.648 -6.15 l -4.706 -2.715 l -9.907 -5.72 h 9.907 h 3.047 l 1.659 0.959 l 10.648 6.147 l 12.115 6.993 l 0.31 0.18 l 2.436 1.406 l 2.748 1.586 l 2.61 1.508 l 0.136 -0.079 l 2.747 -1.586 l 1.156 -0.667 l 1.591 -0.918 l 1.337 -0.774 l 1.409 -0.812 l 2.747 -1.586 l 2.746 -1.585 l 2.748 -1.587 l 1.802 -1.039 l 0.944 -0.547 l 1.637 -0.944 c 1.875 1.406 3.648 2.882 5.3 4.419 z" stroke-linecap="round" />
</g>
		<g transform="matrix(2.4091682013749294 0 0 -2.4091682013749294 12.14700484357843 54.33570864763129)"  >
<path style="stroke: none; stroke-width: 1; stroke-dasharray: none; stroke-linecap: butt; stroke-dashoffset: 0; stroke-linejoin: miter; stroke-miterlimit: 4; fill: rgb(0,90,165); fill-rule: nonzero; opacity: 1;"  paint-order="stroke"  transform=" translate(17.429499999999997, -1.2764999999999995)" d="m 0 0 l -7.952 4.591 l -2.928 1.689 l -4.039 2.333 l -7.794 -4.502 l -12.425 -7.172 l -5.193 -2.999 l 5.193 2.303 l 12.425 5.51 l 7.794 3.456 L -10.88 3.418 L -7.952 2.119 L -3.169 0 L 4.902 -3.58 c 0.193 0.138 0.379 0.28 0.57 0.421 z" stroke-linecap="round" />
</g>
		<g transform="matrix(2.4091682013749294 0 0 -2.4091682013749294 87.35208125133857 10.376098310783249)"  >
<path style="stroke: none; stroke-width: 1; stroke-dasharray: none; stroke-linecap: butt; stroke-dashoffset: 0; stroke-linejoin: miter; stroke-miterlimit: 4; fill: rgb(0,90,165); fill-rule: nonzero; opacity: 1;"  paint-order="stroke"  transform=" translate(1.3735, 14.420000000000002)" d="m 0 0 l -2.747 1.585 v -31.532 l 0.828 -0.478 c 0.666 0.679 1.301 1.369 1.919 2.066 z" stroke-linecap="round" />
</g>
		<g transform="matrix(2.4091682013749294 0 0 -2.4091682013749294 100.58708768241183 7.624587307992925)"  >
<path style="stroke: none; stroke-width: 1; stroke-dasharray: none; stroke-linecap: butt; stroke-dashoffset: 0; stroke-linejoin: miter; stroke-miterlimit: 4; fill: rgb(0,90,165); fill-rule: nonzero; opacity: 1;"  paint-order="stroke"  transform=" translate(1.373, 10.106)" d="m 0 0 l -2.746 1.585 v -23.382 c 1.019 1.385 1.939 2.795 2.746 4.228 z" stroke-linecap="round" />
</g>
	<g transform="matrix(2.4091682013749294 0 0 -2.4091682013749294 74.11562931934446 -25.42528771049166)"  >
<path style="stroke: none; stroke-width: 1; stroke-dasharray: none; stroke-linecap: butt; stroke-dashoffset: 0; stroke-linejoin: miter; stroke-miterlimit: 4; fill: rgb(0,90,165); fill-rule: nonzero; opacity: 1;"  paint-order="stroke"  transform=" translate(-1.3729999999999998, 27.448)" d="M 0 0 V -19.234 V -53.31 l 2.183 -1.26 l 0.563 -0.326 v 8.591 v 27.877 v 19.842 z" stroke-linecap="round" />
</g>
	<g transform="matrix(2.4091682013749294 0 0 -2.4091682013749294 87.35208125133857 -37.068132912533486)"  >
<path style="stroke: none; stroke-width: 1; stroke-dasharray: none; stroke-linecap: butt; stroke-dashoffset: 0; stroke-linejoin: miter; stroke-miterlimit: 4; fill: rgb(0,90,165); fill-rule: nonzero; opacity: 1;"  paint-order="stroke"  transform=" translate(-1.373, 25.447)" d="m 0 0 v -23.865 v -29.444 l 2.746 -1.585 v 34.732 v 21.576 z" stroke-linecap="round" />
</g>
	<g transform="matrix(2.4091682013749294 0 0 -2.4091682013749294 100.58708768241183 -44.709773530474564)"  >
<path style="stroke: none; stroke-width: 1; stroke-dasharray: none; stroke-linecap: butt; stroke-dashoffset: 0; stroke-linejoin: miter; stroke-miterlimit: 4; fill: rgb(0,90,165); fill-rule: nonzero; opacity: 1;"  paint-order="stroke"  transform=" translate(-1.373, 25.447)" d="m 0 0 v -28.28 v -25.029 l 1.337 -0.772 l 1.409 -0.813 v 30.207 v 26.101 z" stroke-linecap="round" />
</g>

</g>
</g>
</svg>